<mxfile host="app.diagrams.net" modified="2023-04-21T11:07:53.408Z" agent="Mozilla/5.0 (Windows NT 10.0; Win64; x64) AppleWebKit/537.36 (KHTML, like Gecko) Chrome/112.0.0.0 Safari/537.36" etag="RzHwQW48OSyNRh6vVjfg" version="21.2.0" type="device">
  <diagram name="Trang-1" id="RSp5bvZyH3KJFfUEdkX4">
    <mxGraphModel dx="1909" dy="-616" grid="0" gridSize="10" guides="1" tooltips="1" connect="1" arrows="1" fold="1" page="0" pageScale="1" pageWidth="827" pageHeight="1169" math="0" shadow="0">
      <root>
        <mxCell id="0" />
        <mxCell id="1" parent="0" />
        <mxCell id="OfQsJBqWhQbi4R5JQu1s-8" value="" style="edgeStyle=orthogonalEdgeStyle;rounded=0;orthogonalLoop=1;jettySize=auto;html=1;" parent="1" source="OfQsJBqWhQbi4R5JQu1s-1" target="OfQsJBqWhQbi4R5JQu1s-2" edge="1">
          <mxGeometry relative="1" as="geometry" />
        </mxCell>
        <mxCell id="OfQsJBqWhQbi4R5JQu1s-1" value="BẮT ĐẦU" style="ellipse;whiteSpace=wrap;html=1;" parent="1" vertex="1">
          <mxGeometry x="420" y="1811" width="120" height="80" as="geometry" />
        </mxCell>
        <mxCell id="OfQsJBqWhQbi4R5JQu1s-9" value="" style="edgeStyle=orthogonalEdgeStyle;rounded=0;orthogonalLoop=1;jettySize=auto;html=1;" parent="1" source="OfQsJBqWhQbi4R5JQu1s-2" target="OfQsJBqWhQbi4R5JQu1s-3" edge="1">
          <mxGeometry relative="1" as="geometry" />
        </mxCell>
        <mxCell id="OfQsJBqWhQbi4R5JQu1s-2" value="KHỞI TẠO BIẾN C = &#39;Z&#39;&lt;br&gt;GÁN 1 TRONG CÁC CỘT = 0, CÁC CỘT CÒN LẠI = 1" style="rounded=0;whiteSpace=wrap;html=1;" parent="1" vertex="1">
          <mxGeometry x="400" y="1913" width="160" height="60" as="geometry" />
        </mxCell>
        <mxCell id="OfQsJBqWhQbi4R5JQu1s-10" value="" style="edgeStyle=orthogonalEdgeStyle;rounded=0;orthogonalLoop=1;jettySize=auto;html=1;" parent="1" source="OfQsJBqWhQbi4R5JQu1s-3" target="OfQsJBqWhQbi4R5JQu1s-4" edge="1">
          <mxGeometry relative="1" as="geometry" />
        </mxCell>
        <mxCell id="OfQsJBqWhQbi4R5JQu1s-25" value="" style="edgeStyle=orthogonalEdgeStyle;rounded=0;orthogonalLoop=1;jettySize=auto;html=1;" parent="1" source="OfQsJBqWhQbi4R5JQu1s-3" target="OfQsJBqWhQbi4R5JQu1s-24" edge="1">
          <mxGeometry relative="1" as="geometry" />
        </mxCell>
        <mxCell id="OfQsJBqWhQbi4R5JQu1s-3" value="NẾU HÀNG 1 = 0 ?" style="rhombus;whiteSpace=wrap;html=1;" parent="1" vertex="1">
          <mxGeometry x="400" y="1996" width="160" height="80" as="geometry" />
        </mxCell>
        <mxCell id="OfQsJBqWhQbi4R5JQu1s-11" value="" style="edgeStyle=orthogonalEdgeStyle;rounded=0;orthogonalLoop=1;jettySize=auto;html=1;" parent="1" source="OfQsJBqWhQbi4R5JQu1s-4" target="OfQsJBqWhQbi4R5JQu1s-5" edge="1">
          <mxGeometry relative="1" as="geometry" />
        </mxCell>
        <mxCell id="OfQsJBqWhQbi4R5JQu1s-29" value="" style="edgeStyle=orthogonalEdgeStyle;rounded=0;orthogonalLoop=1;jettySize=auto;html=1;" parent="1" source="OfQsJBqWhQbi4R5JQu1s-4" target="OfQsJBqWhQbi4R5JQu1s-26" edge="1">
          <mxGeometry relative="1" as="geometry" />
        </mxCell>
        <mxCell id="OfQsJBqWhQbi4R5JQu1s-4" value="NẾU HÀNG 2 = 0 ?" style="rhombus;whiteSpace=wrap;html=1;" parent="1" vertex="1">
          <mxGeometry x="400" y="2104" width="160" height="80" as="geometry" />
        </mxCell>
        <mxCell id="OfQsJBqWhQbi4R5JQu1s-12" value="" style="edgeStyle=orthogonalEdgeStyle;rounded=0;orthogonalLoop=1;jettySize=auto;html=1;" parent="1" source="OfQsJBqWhQbi4R5JQu1s-5" target="OfQsJBqWhQbi4R5JQu1s-6" edge="1">
          <mxGeometry relative="1" as="geometry" />
        </mxCell>
        <mxCell id="OfQsJBqWhQbi4R5JQu1s-30" value="" style="edgeStyle=orthogonalEdgeStyle;rounded=0;orthogonalLoop=1;jettySize=auto;html=1;" parent="1" source="OfQsJBqWhQbi4R5JQu1s-5" target="OfQsJBqWhQbi4R5JQu1s-27" edge="1">
          <mxGeometry relative="1" as="geometry" />
        </mxCell>
        <mxCell id="OfQsJBqWhQbi4R5JQu1s-5" value="NẾU HÀNG 3 = 0 ?" style="rhombus;whiteSpace=wrap;html=1;" parent="1" vertex="1">
          <mxGeometry x="400" y="2213" width="160" height="80" as="geometry" />
        </mxCell>
        <mxCell id="OfQsJBqWhQbi4R5JQu1s-13" value="" style="edgeStyle=orthogonalEdgeStyle;rounded=0;orthogonalLoop=1;jettySize=auto;html=1;" parent="1" source="OfQsJBqWhQbi4R5JQu1s-6" target="OfQsJBqWhQbi4R5JQu1s-7" edge="1">
          <mxGeometry relative="1" as="geometry" />
        </mxCell>
        <mxCell id="OfQsJBqWhQbi4R5JQu1s-15" value="" style="edgeStyle=orthogonalEdgeStyle;rounded=0;orthogonalLoop=1;jettySize=auto;html=1;" parent="1" source="OfQsJBqWhQbi4R5JQu1s-6" target="OfQsJBqWhQbi4R5JQu1s-14" edge="1">
          <mxGeometry relative="1" as="geometry" />
        </mxCell>
        <mxCell id="OfQsJBqWhQbi4R5JQu1s-6" value="NẾU HÀNG 4 = 0 ?" style="rhombus;whiteSpace=wrap;html=1;" parent="1" vertex="1">
          <mxGeometry x="400" y="2320" width="160" height="80" as="geometry" />
        </mxCell>
        <mxCell id="OfQsJBqWhQbi4R5JQu1s-36" value="" style="edgeStyle=orthogonalEdgeStyle;rounded=0;orthogonalLoop=1;jettySize=auto;html=1;" parent="1" source="OfQsJBqWhQbi4R5JQu1s-7" target="OfQsJBqWhQbi4R5JQu1s-34" edge="1">
          <mxGeometry relative="1" as="geometry" />
        </mxCell>
        <mxCell id="OfQsJBqWhQbi4R5JQu1s-37" value="" style="edgeStyle=orthogonalEdgeStyle;rounded=0;orthogonalLoop=1;jettySize=auto;html=1;" parent="1" source="OfQsJBqWhQbi4R5JQu1s-7" target="OfQsJBqWhQbi4R5JQu1s-35" edge="1">
          <mxGeometry relative="1" as="geometry" />
        </mxCell>
        <mxCell id="OfQsJBqWhQbi4R5JQu1s-7" value="&lt;font style=&quot;font-size: 10px;&quot;&gt;NẾU KÝ TỰ ỨNG VỚI HÀNG 4 VÀ CỘT ĐANG CÓ GIÁ TRỊ 0 LÀ &#39;C&#39;&lt;/font&gt;" style="rhombus;whiteSpace=wrap;html=1;" parent="1" vertex="1">
          <mxGeometry x="625" y="2320" width="190" height="80" as="geometry" />
        </mxCell>
        <mxCell id="OfQsJBqWhQbi4R5JQu1s-18" value="" style="edgeStyle=orthogonalEdgeStyle;rounded=0;orthogonalLoop=1;jettySize=auto;html=1;" parent="1" source="OfQsJBqWhQbi4R5JQu1s-14" target="OfQsJBqWhQbi4R5JQu1s-17" edge="1">
          <mxGeometry relative="1" as="geometry" />
        </mxCell>
        <mxCell id="OfQsJBqWhQbi4R5JQu1s-14" value="NẾU C != &#39;Z&#39; ?" style="rhombus;whiteSpace=wrap;html=1;" parent="1" vertex="1">
          <mxGeometry x="400" y="2440" width="160" height="80" as="geometry" />
        </mxCell>
        <mxCell id="OfQsJBqWhQbi4R5JQu1s-22" value="" style="edgeStyle=orthogonalEdgeStyle;rounded=0;orthogonalLoop=1;jettySize=auto;html=1;" parent="1" source="OfQsJBqWhQbi4R5JQu1s-17" target="OfQsJBqWhQbi4R5JQu1s-20" edge="1">
          <mxGeometry relative="1" as="geometry" />
        </mxCell>
        <mxCell id="OfQsJBqWhQbi4R5JQu1s-17" value="GHI C LÊN LCD&lt;br&gt;DELAY 200ms" style="rounded=0;whiteSpace=wrap;html=1;" parent="1" vertex="1">
          <mxGeometry x="400" y="2544" width="160" height="60" as="geometry" />
        </mxCell>
        <mxCell id="OfQsJBqWhQbi4R5JQu1s-23" value="" style="edgeStyle=orthogonalEdgeStyle;rounded=0;orthogonalLoop=1;jettySize=auto;html=1;" parent="1" target="OfQsJBqWhQbi4R5JQu1s-21" edge="1">
          <mxGeometry relative="1" as="geometry">
            <mxPoint x="480.0588235294117" y="2697" as="sourcePoint" />
          </mxGeometry>
        </mxCell>
        <mxCell id="OfQsJBqWhQbi4R5JQu1s-20" value="TRẢ VỀ GIÁ TRỊ C" style="rounded=0;whiteSpace=wrap;html=1;" parent="1" vertex="1">
          <mxGeometry x="400" y="2641" width="160" height="60" as="geometry" />
        </mxCell>
        <mxCell id="OfQsJBqWhQbi4R5JQu1s-21" value="KẾT THÚC" style="ellipse;whiteSpace=wrap;html=1;" parent="1" vertex="1">
          <mxGeometry x="420" y="2726" width="120" height="80" as="geometry" />
        </mxCell>
        <mxCell id="OfQsJBqWhQbi4R5JQu1s-24" value="GÁN C VỚI KÝ TỰ TƯƠNG ỨNG HÀNG 1 VÀ CỘT ĐANG CÓ GIÁ TRỊ 0" style="rounded=0;whiteSpace=wrap;html=1;" parent="1" vertex="1">
          <mxGeometry x="179" y="2006" width="160" height="60" as="geometry" />
        </mxCell>
        <mxCell id="OfQsJBqWhQbi4R5JQu1s-26" value="GÁN C VỚI KÝ TỰ TƯƠNG ỨNG HÀNG 2 VÀ CỘT ĐANG CÓ GIÁ TRỊ 0" style="rounded=0;whiteSpace=wrap;html=1;" parent="1" vertex="1">
          <mxGeometry x="179" y="2114" width="160" height="60" as="geometry" />
        </mxCell>
        <mxCell id="OfQsJBqWhQbi4R5JQu1s-27" value="GÁN C VỚI KÝ TỰ TƯƠNG ỨNG HÀNG 3 VÀ CỘT ĐANG CÓ GIÁ TRỊ 0" style="rounded=0;whiteSpace=wrap;html=1;" parent="1" vertex="1">
          <mxGeometry x="179" y="2223" width="160" height="60" as="geometry" />
        </mxCell>
        <mxCell id="OfQsJBqWhQbi4R5JQu1s-31" value="" style="endArrow=classic;html=1;rounded=0;exitX=0;exitY=0.5;exitDx=0;exitDy=0;" parent="1" edge="1" source="OfQsJBqWhQbi4R5JQu1s-27">
          <mxGeometry width="50" height="50" relative="1" as="geometry">
            <mxPoint x="160" y="2247" as="sourcePoint" />
            <mxPoint x="480" y="2427" as="targetPoint" />
            <Array as="points">
              <mxPoint x="140" y="2253" />
              <mxPoint x="140" y="2427" />
            </Array>
          </mxGeometry>
        </mxCell>
        <mxCell id="OfQsJBqWhQbi4R5JQu1s-32" value="" style="endArrow=none;html=1;rounded=0;entryX=0;entryY=0.5;entryDx=0;entryDy=0;" parent="1" target="OfQsJBqWhQbi4R5JQu1s-26" edge="1">
          <mxGeometry width="50" height="50" relative="1" as="geometry">
            <mxPoint x="139" y="2253" as="sourcePoint" />
            <mxPoint x="579" y="2213" as="targetPoint" />
            <Array as="points">
              <mxPoint x="139" y="2144" />
            </Array>
          </mxGeometry>
        </mxCell>
        <mxCell id="OfQsJBqWhQbi4R5JQu1s-33" value="" style="endArrow=none;html=1;rounded=0;entryX=0;entryY=0.5;entryDx=0;entryDy=0;" parent="1" edge="1" target="OfQsJBqWhQbi4R5JQu1s-24">
          <mxGeometry width="50" height="50" relative="1" as="geometry">
            <mxPoint x="139" y="2147" as="sourcePoint" />
            <mxPoint x="179" y="2027" as="targetPoint" />
            <Array as="points">
              <mxPoint x="139" y="2036" />
            </Array>
          </mxGeometry>
        </mxCell>
        <mxCell id="OfQsJBqWhQbi4R5JQu1s-34" value="XÓA MÀN HÌNH" style="rounded=0;whiteSpace=wrap;html=1;" parent="1" vertex="1">
          <mxGeometry x="640" y="2440" width="160" height="60" as="geometry" />
        </mxCell>
        <mxCell id="OfQsJBqWhQbi4R5JQu1s-35" value="GÁN C VỚI KÝ TỰ TƯƠNG ỨNG HÀNG 3 VÀ CỘT ĐANG CÓ GIÁ TRỊ 0" style="rounded=0;whiteSpace=wrap;html=1;" parent="1" vertex="1">
          <mxGeometry x="865" y="2330" width="160" height="60" as="geometry" />
        </mxCell>
        <mxCell id="OfQsJBqWhQbi4R5JQu1s-38" value="" style="endArrow=classic;html=1;rounded=0;exitX=0.5;exitY=1;exitDx=0;exitDy=0;" parent="1" edge="1" source="OfQsJBqWhQbi4R5JQu1s-34">
          <mxGeometry width="50" height="50" relative="1" as="geometry">
            <mxPoint x="740" y="2497" as="sourcePoint" />
            <mxPoint x="480" y="2420" as="targetPoint" />
            <Array as="points">
              <mxPoint x="720" y="2540" />
              <mxPoint x="600" y="2540" />
              <mxPoint x="600" y="2470" />
            </Array>
          </mxGeometry>
        </mxCell>
        <mxCell id="OfQsJBqWhQbi4R5JQu1s-41" value="" style="endArrow=classic;html=1;rounded=0;exitX=0;exitY=0.5;exitDx=0;exitDy=0;" parent="1" source="OfQsJBqWhQbi4R5JQu1s-14" edge="1">
          <mxGeometry width="50" height="50" relative="1" as="geometry">
            <mxPoint x="470" y="2730" as="sourcePoint" />
            <mxPoint x="480" y="2620" as="targetPoint" />
            <Array as="points">
              <mxPoint x="350" y="2480" />
              <mxPoint x="350" y="2620" />
            </Array>
          </mxGeometry>
        </mxCell>
        <mxCell id="OfQsJBqWhQbi4R5JQu1s-42" value="S" style="text;html=1;strokeColor=none;fillColor=none;align=center;verticalAlign=middle;whiteSpace=wrap;rounded=0;" parent="1" vertex="1">
          <mxGeometry x="471" y="2071" width="40" height="20" as="geometry" />
        </mxCell>
        <mxCell id="OfQsJBqWhQbi4R5JQu1s-43" value="S" style="text;html=1;strokeColor=none;fillColor=none;align=center;verticalAlign=middle;whiteSpace=wrap;rounded=0;" parent="1" vertex="1">
          <mxGeometry x="472" y="2177" width="40" height="20" as="geometry" />
        </mxCell>
        <mxCell id="OfQsJBqWhQbi4R5JQu1s-44" value="Đ" style="text;html=1;strokeColor=none;fillColor=none;align=center;verticalAlign=middle;whiteSpace=wrap;rounded=0;" parent="1" vertex="1">
          <mxGeometry x="350" y="2233" width="40" height="20" as="geometry" />
        </mxCell>
        <mxCell id="OfQsJBqWhQbi4R5JQu1s-45" value="Đ" style="text;html=1;strokeColor=none;fillColor=none;align=center;verticalAlign=middle;whiteSpace=wrap;rounded=0;" parent="1" vertex="1">
          <mxGeometry x="350" y="2124" width="40" height="20" as="geometry" />
        </mxCell>
        <mxCell id="OfQsJBqWhQbi4R5JQu1s-46" value="Đ" style="text;html=1;strokeColor=none;fillColor=none;align=center;verticalAlign=middle;whiteSpace=wrap;rounded=0;" parent="1" vertex="1">
          <mxGeometry x="340" y="2016" width="40" height="20" as="geometry" />
        </mxCell>
        <mxCell id="OfQsJBqWhQbi4R5JQu1s-50" value="S" style="text;html=1;strokeColor=none;fillColor=none;align=center;verticalAlign=middle;whiteSpace=wrap;rounded=0;" parent="1" vertex="1">
          <mxGeometry x="471" y="2293" width="40" height="20" as="geometry" />
        </mxCell>
        <mxCell id="OfQsJBqWhQbi4R5JQu1s-51" value="Đ" style="text;html=1;strokeColor=none;fillColor=none;align=center;verticalAlign=middle;whiteSpace=wrap;rounded=0;" parent="1" vertex="1">
          <mxGeometry x="570" y="2340" width="40" height="20" as="geometry" />
        </mxCell>
        <mxCell id="OfQsJBqWhQbi4R5JQu1s-52" value="S" style="text;html=1;strokeColor=none;fillColor=none;align=center;verticalAlign=middle;whiteSpace=wrap;rounded=0;" parent="1" vertex="1">
          <mxGeometry x="817" y="2341" width="40" height="20" as="geometry" />
        </mxCell>
        <mxCell id="OfQsJBqWhQbi4R5JQu1s-53" value="S" style="text;html=1;strokeColor=none;fillColor=none;align=center;verticalAlign=middle;whiteSpace=wrap;rounded=0;" parent="1" vertex="1">
          <mxGeometry x="471" y="2400" width="40" height="20" as="geometry" />
        </mxCell>
        <mxCell id="OfQsJBqWhQbi4R5JQu1s-54" value="Đ" style="text;html=1;strokeColor=none;fillColor=none;align=center;verticalAlign=middle;whiteSpace=wrap;rounded=0;" parent="1" vertex="1">
          <mxGeometry x="712" y="2400" width="40" height="20" as="geometry" />
        </mxCell>
        <mxCell id="OfQsJBqWhQbi4R5JQu1s-55" value="S" style="text;html=1;strokeColor=none;fillColor=none;align=center;verticalAlign=middle;whiteSpace=wrap;rounded=0;" parent="1" vertex="1">
          <mxGeometry x="344" y="2462" width="40" height="20" as="geometry" />
        </mxCell>
        <mxCell id="OfQsJBqWhQbi4R5JQu1s-56" value="Đ" style="text;html=1;strokeColor=none;fillColor=none;align=center;verticalAlign=middle;whiteSpace=wrap;rounded=0;" parent="1" vertex="1">
          <mxGeometry x="472" y="2520" width="40" height="20" as="geometry" />
        </mxCell>
        <mxCell id="OfQsJBqWhQbi4R5JQu1s-58" value="" style="endArrow=none;html=1;rounded=0;entryX=0.5;entryY=1;entryDx=0;entryDy=0;" parent="1" target="OfQsJBqWhQbi4R5JQu1s-35" edge="1">
          <mxGeometry width="50" height="50" relative="1" as="geometry">
            <mxPoint x="720" y="2540" as="sourcePoint" />
            <mxPoint x="500" y="2450" as="targetPoint" />
            <Array as="points">
              <mxPoint x="945" y="2540" />
            </Array>
          </mxGeometry>
        </mxCell>
      </root>
    </mxGraphModel>
  </diagram>
</mxfile>
